<?xml version="1.0" standalone="no"?>
<!DOCTYPE svg PUBLIC "-//W3C//DTD SVG 20010904//EN"
 "http://www.w3.org/TR/2001/REC-SVG-20010904/DTD/svg10.dtd">
<svg version="1.0" xmlns="http://www.w3.org/2000/svg"
 width="296.000000pt" height="171.000000pt" viewBox="0 0 296.000000 171.000000"
 preserveAspectRatio="xMidYMid meet">
<metadata>
Created by potrace 1.16, written by Peter Selinger 2001-2019
</metadata>
<g transform="translate(0.000000,171.000000) scale(0.100000,-0.100000)"
fill="#000000" stroke="none">
<path d="M1345 1696 c-331 -57 -583 -286 -677 -614 -29 -101 -32 -313 -5 -411
83 -306 297 -528 594 -613 113 -33 333 -33 446 0 297 85 511 307 594 613 27
98 24 310 -5 411 -72 253 -229 438 -464 547 -45 21 -112 46 -148 55 -94 23
-240 28 -335 12z m56 -336 c29 -16 52 -68 45 -103 -6 -28 0 -37 50 -88 53 -53
58 -56 85 -46 21 8 37 8 64 -1 34 -13 36 -12 89 30 44 36 53 47 49 68 -17 94
105 152 169 81 39 -44 38 -92 -2 -133 -28 -28 -35 -30 -83 -25 -49 4 -55 2
-104 -37 -41 -31 -53 -47 -53 -68 0 -40 -20 -78 -51 -94 -46 -23 -78 -17 -116
21 -28 28 -34 41 -32 70 3 31 -3 42 -55 94 -50 51 -62 58 -79 50 -10 -6 -29
-8 -42 -5 -21 5 -33 -6 -94 -85 -65 -85 -69 -93 -59 -121 22 -62 -47 -137
-112 -123 -41 9 -80 58 -80 102 0 53 47 95 101 92 41 -3 41 -3 109 85 60 78
67 92 58 112 -16 34 -1 90 29 114 28 22 82 26 114 10z m39 -600 l0 -310 40 0
40 0 0 205 0 205 90 0 90 0 0 -205 0 -205 40 0 40 0 0 290 0 290 90 0 90 0 0
-290 0 -290 60 0 c57 0 60 -1 60 -25 l0 -25 -600 0 -600 0 0 25 c0 24 3 25 60
25 l60 0 0 150 0 150 90 0 90 0 0 -150 0 -150 40 0 40 0 0 310 0 310 90 0 90
0 0 -310z"/>
</g>
</svg>
